<svg width="27" height="27" viewBox="0 0 27 27" fill="none" xmlns="http://www.w3.org/2000/svg">
<path d="M12.8849 25V14.8182H16.9616C17.7107 14.8182 18.3355 14.9292 18.8359 15.1513C19.3364 15.3733 19.7126 15.6816 19.9645 16.076C20.2164 16.4671 20.3423 16.9179 20.3423 17.4283C20.3423 17.826 20.2628 18.1757 20.1037 18.4773C19.9446 18.7756 19.7259 19.0208 19.4474 19.2131C19.1723 19.402 18.8575 19.5362 18.5028 19.6158V19.7152C18.8906 19.7318 19.2536 19.8411 19.5916 20.0433C19.933 20.2455 20.2098 20.5289 20.4219 20.8935C20.634 21.2547 20.7401 21.6856 20.7401 22.1861C20.7401 22.7263 20.6058 23.2086 20.3374 23.6328C20.0722 24.0537 19.6795 24.3868 19.1591 24.6321C18.6387 24.8774 17.9974 25 17.2351 25H12.8849ZM15.0376 23.2401H16.7926C17.3925 23.2401 17.83 23.1257 18.1051 22.897C18.3802 22.665 18.5178 22.3568 18.5178 21.9723C18.5178 21.6906 18.4498 21.442 18.3139 21.2266C18.178 21.0111 17.9841 20.8421 17.7322 20.7195C17.4837 20.5968 17.187 20.5355 16.8423 20.5355H15.0376V23.2401ZM15.0376 19.0788H16.6335C16.9285 19.0788 17.1903 19.0275 17.419 18.9247C17.651 18.8187 17.8333 18.6695 17.9659 18.4773C18.1018 18.285 18.1697 18.0547 18.1697 17.7862C18.1697 17.4183 18.0388 17.1217 17.777 16.8963C17.5185 16.6709 17.1506 16.5582 16.6733 16.5582H15.0376V19.0788Z" fill="#4A4E69"/>
<path d="M8.42317 9.54589V24.2891C8.42317 24.6127 8.68552 24.875 9.0091 24.875H11.7435C12.0671 24.875 12.3294 24.6127 12.3294 24.2891V9.54589H14.5784C15.6224 9.54589 16.1453 8.28363 15.4071 7.54535L11.205 3.34325C10.7473 2.88558 10.0053 2.88558 9.54768 3.34325L5.34558 7.54535C4.60735 8.28358 5.1302 9.54589 6.17424 9.54589H8.42317Z" fill="#4A4E69"/>
</svg>
