<svg width="27" height="27" viewBox="0 0 27 27" fill="none" xmlns="http://www.w3.org/2000/svg">
<circle cx="13.5" cy="13.5" r="13.25" fill="white" stroke="#4A4E69" stroke-width="0.5"/>
<path d="M14.6907 6.8538L16.1506 8.3137L8.39276 16.0715L6.93286 14.6116C6.25514 13.9339 5.09342 14.4168 5.09167 15.377L5.08191 20.8422C5.08084 21.4375 5.56247 21.9191 6.15771 21.918L11.623 21.9083C12.5831 21.9065 13.066 20.7448 12.3883 20.0671L10.9285 18.6072L18.6863 10.8494L20.1462 12.3093C20.8239 12.987 21.9856 12.5041 21.9874 11.5439L21.9971 6.07868C21.9982 5.48343 21.5166 5.00181 20.9213 5.00288L15.4561 5.01264C14.4959 5.01433 14.0129 6.17607 14.6907 6.8538Z" fill="#4A4E69"/>
</svg>
