<svg width="27" height="27" viewBox="0 0 27 27" fill="none" xmlns="http://www.w3.org/2000/svg">
<path d="M27 16.875V25.3125C27 26.2443 26.2443 27 25.3125 27H16.875C15.9432 27 15.1875 26.2443 15.1875 25.3125V16.875C15.1875 15.9431 15.9432 15.1874 16.875 15.1874H25.3125C26.2443 15.1874 27 15.9431 27 16.875ZM6.75 13.4999C3.02221 13.4999 0 16.5222 0 20.25C0 23.9778 3.02221 27 6.75 27C10.4778 27 13.5 23.9778 13.5 20.25C13.5 16.5222 10.4778 13.4999 6.75 13.4999ZM25.2613 11.8124C26.5976 11.8124 27.4329 10.406 26.7648 9.28116L21.7535 0.843622C21.0853 -0.281207 19.4147 -0.281207 18.7465 0.843622L13.7352 9.28116C13.067 10.406 13.9024 11.8124 15.2387 11.8124H25.2613Z" fill="#4A4E69"/>
</svg>
