<?xml version="1.0" encoding="UTF-8"?>
<svg id="Layer_1" xmlns="http://www.w3.org/2000/svg" version="1.1" viewBox="0 0 253.7 46.2">
  <!-- Generator: Adobe Illustrator 29.3.1, SVG Export Plug-In . SVG Version: 2.1.0 Build 151)  -->
  <defs>
    <style>
      .st0 {
        fill: #2aa7df;
      }

      .st1 {
        fill: #a8a9ac;
      }
    </style>
  </defs>
  <path class="st1" d="M2.3,45.8c.2,0,.5,0,.9,0V.5c-.4,0-.6,0-.9,0H.9c-.2,0-.5,0-.9,0v45.1c.4,0,.7,0,.9,0h1.4Z"/>
  <path class="st1" d="M11.8,45.8c.2,0,.5,0,.9,0V4.1l21,41.3c.3.2.7.3,1.1.3.4,0,.8,0,1.3,0h1.3c.4,0,.8,0,1.2,0,.4,0,.8-.1,1.3-.2V.5c-.3,0-.6,0-.9,0h-1.4c-.2,0-.5,0-.9,0v43.2L14.6.8c-.4-.2-.9-.3-1.3-.3-.5,0-.9,0-1.4,0-1.1,0-1.9,0-2.4.3v44.9c.3,0,.6,0,.9,0h1.4Z"/>
  <path class="st1" d="M52.5,42.1c-1.7-.8-2.8-2.3-3.4-4.3-.5-2-.8-4.7-.8-8.2v-13c0-3.5.3-6.3.8-8.2.5-2,1.6-3.4,3.4-4.3,1.7-.8,4.3-1.3,7.8-1.3s6.2.4,7.9,1.3c1.7.8,2.8,2.3,3.3,4.3.5,2,.8,4.7.8,8.2v13c0,3.5-.3,6.3-.8,8.2-.5,2-1.6,3.4-3.3,4.3-1.7.8-4.3,1.3-7.9,1.3s-6.1-.4-7.8-1.3M68.7,45.1c2-.7,3.5-1.8,4.5-3.2,1-1.4,1.6-3.1,1.9-5.1.3-2,.4-4.3.4-6.9v-13c0-2.7-.1-5-.4-7.1-.3-2.1-.9-3.9-1.9-5.3-1-1.4-2.5-2.6-4.5-3.4C66.7.4,63.9,0,60.3,0s-6.4.4-8.4,1.2c-2,.8-3.5,1.9-4.5,3.4-1,1.4-1.6,3.2-1.9,5.3-.3,2.1-.4,4.5-.4,7.1v13c0,2.6.1,4.9.4,6.9.3,2,.9,3.7,1.9,5.1,1,1.4,2.5,2.4,4.5,3.2,2,.7,4.8,1.1,8.4,1.1s6.4-.4,8.4-1.1"/>
  <path class="st1" d="M79.7,45.8c.3,0,.8,0,1.4,0l12.5-19.8,12.5,19.8c.6,0,1.1,0,1.4,0h1.5c.2,0,.5,0,1,0l-14.3-22.2L110.3.5c-.1,0-.4,0-.7,0h-1.6c-.4,0-.9,0-1.4,0l-13,20.3L80.5.5c-.5,0-.9,0-1.4,0h-1.6c-.4,0-.6,0-.7,0l14.7,22.9-14.3,22.2c.5,0,.8,0,1,0h1.5Z"/>
  <path class="st0" d="M115.8,3.3h8.1c2.2,0,4.2.2,5.9.5,1.8.4,3.2,1.3,4.3,2.9,1.1,1.5,1.6,4.1,1.6,7.7s-.3,5.2-1,6.8c-.6,1.6-1.5,2.8-2.6,3.5-1.1.7-2.3,1.1-3.8,1.3-1.4.2-2.9.2-4.5.2h-8.1V3.3ZM114.8,45.8c.2,0,.6,0,1,0v-16.7h8.2c1.9,0,3.8-.1,5.6-.4,1.8-.3,3.4-.9,4.8-1.8,1.4-.9,2.5-2.3,3.3-4.3.8-2,1.2-4.7,1.2-8.1s-.4-6-1.2-7.9c-.8-1.9-1.9-3.3-3.3-4.1-1.4-.8-3-1.4-4.8-1.6-1.8-.2-3.6-.3-5.6-.3h-11.3v45.2c.3,0,.6,0,.8,0h1.4Z"/>
  <path class="st0" d="M153.3,3.4l7,23.8h-14l7-23.8ZM140.8,45.8l4.6-15.7h15.8l4.6,15.7h2.6c.3,0,.5,0,.8,0L155.7.8c-.7-.2-1.1-.3-1.3-.3-.2,0-.6,0-1.1,0s-.9,0-1.1,0c-.2,0-.7.1-1.3.3l-13.4,44.8c.2,0,.5,0,.8,0h2.6Z"/>
  <path class="st0" d="M174.1,3.3h9c1.3,0,2.6,0,3.9.3,1.4.2,2.6.6,3.8,1.3,1.2.7,2.1,1.8,2.9,3.3.7,1.5,1.1,3.6,1.1,6.3s-.4,4.8-1.1,6.3c-.7,1.6-1.7,2.7-2.9,3.5-1.2.8-2.4,1.3-3.8,1.5-1.4.2-2.7.4-3.9.4h-9V3.3ZM173.1,45.8c.2,0,.6,0,1,0v-16.7h9.1c.7,0,1.4,0,2.4,0,.9,0,1.8-.2,2.7-.5l5.5,17.4h2.5c.3,0,.5,0,.8,0-.9-2.9-1.9-5.9-2.9-8.9-1-3-2-6-2.8-8.9,1.8-1,3.3-2.5,4.6-4.5,1.3-2,2-5,2-8.9s-.4-6-1.2-7.9c-.8-1.9-1.9-3.3-3.3-4.1-1.4-.8-3-1.4-4.7-1.6-1.8-.2-3.6-.3-5.5-.3h-12.2v45.2c.3,0,.6,0,.8,0h1.4Z"/>
  <path class="st0" d="M212.9,45.8c.2,0,.5,0,.9,0V3.3h11.8c0-.3,0-.6,0-.8v-.7c0-.5,0-1-.2-1.4h-26.5c-.1.4-.2.8-.2,1.4v.7c0,.2,0,.5,0,.8h11.7v42.4c.3,0,.6,0,.9,0h1.4Z"/>
  <path class="st0" d="M243.6,45.8c1.7-.2,3.3-.8,4.8-1.6,1.5-.8,2.8-2.1,3.8-3.8,1-1.7,1.5-4.1,1.5-7.1s-.6-4.1-1.7-5.6c-1.1-1.5-2.6-2.7-4.4-3.7-1.8-1-3.7-1.8-5.8-2.6-2-.8-3.9-1.5-5.8-2.4-1.8-.8-3.3-1.8-4.4-3-1.1-1.2-1.7-2.7-1.7-4.5s.3-3.4.8-4.7c.5-1.3,1.6-2.4,3.1-3.1,1.5-.7,3.8-1.1,6.8-1.1s4.2.1,5.8.3c1.6.2,3.2.5,4.8,1,.2-.5.4-1,.5-1.4,0-.5.1-1,.2-1.5-1.9-.5-3.8-.8-5.6-1-1.8-.2-3.8-.2-5.9-.2-4.3,0-7.6.8-10.1,2.5-2.4,1.7-3.6,4.7-3.6,9.2s.6,4.3,1.7,5.8c1.1,1.5,2.6,2.7,4.4,3.7,1.8,1,3.7,1.8,5.8,2.5,2,.7,3.9,1.5,5.8,2.3,1.8.8,3.3,1.8,4.4,2.9,1.1,1.1,1.7,2.6,1.7,4.4s-.4,4.2-1.2,5.6c-.8,1.4-1.8,2.4-3,3-1.2.6-2.5,1-3.8,1.2-1.3.2-2.5.3-3.5.3-1.6,0-3.4-.2-5.2-.6-1.8-.4-4-1.4-6.4-3-.3.4-.6.8-.9,1.3-.3.5-.5,1-.5,1.5,1.8,1.3,3.8,2.3,6,2.8s4.6.8,6.9.8,2.9-.1,4.6-.4"/>
</svg>